<mxfile host="Electron" modified="2024-09-11T12:49:54.182Z" agent="Mozilla/5.0 (Windows NT 10.0; Win64; x64) AppleWebKit/537.36 (KHTML, like Gecko) draw.io/24.2.5 Chrome/120.0.6099.109 Electron/28.1.0 Safari/537.36" etag="A7s30TIdfmPDkOgvlF5n" version="24.2.5" type="device">
  <diagram name="validate_numeric_input(Page2クラス)" id="6PPoHQFhHw28MK6fnUtK">
    <mxGraphModel dx="1036" dy="606" grid="1" gridSize="10" guides="1" tooltips="1" connect="1" arrows="1" fold="1" page="1" pageScale="1" pageWidth="827" pageHeight="1169" math="0" shadow="0">
      <root>
        <mxCell id="0R9vyNEBXNv19E7Ag0t7-0" />
        <mxCell id="0R9vyNEBXNv19E7Ag0t7-1" parent="0R9vyNEBXNv19E7Ag0t7-0" />
        <mxCell id="0R9vyNEBXNv19E7Ag0t7-2" value="" style="edgeStyle=orthogonalEdgeStyle;rounded=0;orthogonalLoop=1;jettySize=auto;html=1;" parent="0R9vyNEBXNv19E7Ag0t7-1" source="0R9vyNEBXNv19E7Ag0t7-3" edge="1">
          <mxGeometry relative="1" as="geometry">
            <mxPoint x="400" y="455" as="targetPoint" />
          </mxGeometry>
        </mxCell>
        <mxCell id="0R9vyNEBXNv19E7Ag0t7-3" value="開始" style="strokeWidth=2;html=1;shape=mxgraph.flowchart.start_1;whiteSpace=wrap;" parent="0R9vyNEBXNv19E7Ag0t7-1" vertex="1">
          <mxGeometry x="365" y="345" width="70" height="40" as="geometry" />
        </mxCell>
        <mxCell id="0R9vyNEBXNv19E7Ag0t7-5" value="戻り値：&lt;span style=&quot;background-color: initial;&quot;&gt;&quot;true&quot;&lt;/span&gt;" style="strokeWidth=2;html=1;shape=mxgraph.flowchart.start_1;whiteSpace=wrap;" parent="0R9vyNEBXNv19E7Ag0t7-1" vertex="1">
          <mxGeometry x="337.5" y="660" width="125" height="70" as="geometry" />
        </mxCell>
        <mxCell id="0R9vyNEBXNv19E7Ag0t7-6" style="rounded=0;orthogonalLoop=1;jettySize=auto;html=1;entryX=1;entryY=0.5;entryDx=0;entryDy=0;exitX=-0.006;exitY=0.387;exitDx=0;exitDy=0;exitPerimeter=0;endArrow=none;endFill=0;entryPerimeter=0;" parent="0R9vyNEBXNv19E7Ag0t7-1" source="0R9vyNEBXNv19E7Ag0t7-7" target="0R9vyNEBXNv19E7Ag0t7-3" edge="1">
          <mxGeometry relative="1" as="geometry">
            <mxPoint x="435" y="325" as="targetPoint" />
          </mxGeometry>
        </mxCell>
        <mxCell id="0R9vyNEBXNv19E7Ag0t7-7" value="&amp;nbsp;引数１：self&lt;div&gt;&amp;nbsp;引数２：char：str型&lt;/div&gt;" style="text;html=1;align=left;verticalAlign=top;whiteSpace=wrap;rounded=0;fillColor=#f5f5f5;fontColor=#333333;strokeColor=#666666;" parent="0R9vyNEBXNv19E7Ag0t7-1" vertex="1">
          <mxGeometry x="495" y="330" width="125" height="50" as="geometry" />
        </mxCell>
        <mxCell id="0R9vyNEBXNv19E7Ag0t7-9" value="&lt;b style=&quot;&quot;&gt;&lt;font style=&quot;&quot;&gt;&lt;font style=&quot;font-size: 18px;&quot;&gt;UI生成メソッド&lt;/font&gt;&lt;/font&gt;&lt;/b&gt;&lt;div&gt;&lt;font style=&quot;font-size: 14px;&quot;&gt;クラス：Page2クラス&lt;/font&gt;&lt;/div&gt;&lt;div&gt;&lt;div style=&quot;font-size: 14px;&quot;&gt;&lt;font style=&quot;font-size: 14px;&quot;&gt;継承： BasePageクラス&lt;/font&gt;&lt;/div&gt;&lt;/div&gt;&lt;div style=&quot;font-size: 14px;&quot;&gt;&lt;font style=&quot;font-size: 14px;&quot;&gt;&lt;br&gt;&lt;/font&gt;&lt;/div&gt;&lt;div style=&quot;font-size: 14px;&quot;&gt;&lt;font style=&quot;font-size: 14px;&quot;&gt;クラスの役割&lt;/font&gt;&lt;/div&gt;&lt;div style=&quot;font-size: 14px;&quot;&gt;1ページ目で表示するUIの生成&lt;/div&gt;&lt;div style=&quot;font-size: 14px;&quot;&gt;&lt;br&gt;&lt;/div&gt;" style="text;html=1;align=left;verticalAlign=top;whiteSpace=wrap;rounded=0;fillColor=#f5f5f5;fontColor=#333333;strokeColor=#666666;" parent="0R9vyNEBXNv19E7Ag0t7-1" vertex="1">
          <mxGeometry x="20" y="30" width="340" height="130" as="geometry" />
        </mxCell>
        <mxCell id="3hcBZ_WNo3sHuoL4o86D-1" value="" style="edgeStyle=orthogonalEdgeStyle;rounded=0;orthogonalLoop=1;jettySize=auto;html=1;" parent="0R9vyNEBXNv19E7Ag0t7-1" source="3hcBZ_WNo3sHuoL4o86D-0" target="0R9vyNEBXNv19E7Ag0t7-5" edge="1">
          <mxGeometry relative="1" as="geometry" />
        </mxCell>
        <mxCell id="3hcBZ_WNo3sHuoL4o86D-4" value="&lt;b&gt;Yes&lt;/b&gt;" style="edgeLabel;html=1;align=center;verticalAlign=middle;resizable=0;points=[];" parent="3hcBZ_WNo3sHuoL4o86D-1" vertex="1" connectable="0">
          <mxGeometry x="-0.1577" y="6" relative="1" as="geometry">
            <mxPoint x="-26" y="-30" as="offset" />
          </mxGeometry>
        </mxCell>
        <mxCell id="3hcBZ_WNo3sHuoL4o86D-0" value="引数２が数値型&lt;br&gt;or&lt;div&gt;&quot;&quot; である&lt;/div&gt;" style="strokeWidth=2;html=1;shape=mxgraph.flowchart.decision;whiteSpace=wrap;" parent="0R9vyNEBXNv19E7Ag0t7-1" vertex="1">
          <mxGeometry x="295" y="456" width="210" height="100" as="geometry" />
        </mxCell>
        <mxCell id="3hcBZ_WNo3sHuoL4o86D-2" value="戻り値：&lt;span style=&quot;background-color: initial;&quot;&gt;&quot;false&quot;&lt;/span&gt;" style="strokeWidth=2;html=1;shape=mxgraph.flowchart.start_1;whiteSpace=wrap;" parent="0R9vyNEBXNv19E7Ag0t7-1" vertex="1">
          <mxGeometry x="540" y="660" width="125" height="70" as="geometry" />
        </mxCell>
        <mxCell id="3hcBZ_WNo3sHuoL4o86D-3" value="&lt;b&gt;No&lt;/b&gt;" style="edgeStyle=orthogonalEdgeStyle;rounded=0;orthogonalLoop=1;jettySize=auto;html=1;entryX=0.5;entryY=0;entryDx=0;entryDy=0;entryPerimeter=0;" parent="0R9vyNEBXNv19E7Ag0t7-1" source="3hcBZ_WNo3sHuoL4o86D-0" target="3hcBZ_WNo3sHuoL4o86D-2" edge="1">
          <mxGeometry x="-1" y="26" relative="1" as="geometry">
            <mxPoint x="-5" as="offset" />
          </mxGeometry>
        </mxCell>
      </root>
    </mxGraphModel>
  </diagram>
</mxfile>
